<svg width="18" height="19" viewBox="0 0 18 19" fill="none" xmlns="http://www.w3.org/2000/svg">
<path d="M18 9.43531C17.8915 7.68032 17.2719 5.99544 16.2174 4.58838C15.1629 3.18131 13.7197 2.11358 12.0658 1.5168C10.4118 0.920029 8.61937 0.820307 6.90941 1.22993C5.19946 1.63955 3.64675 2.54061 2.44271 3.82202C1.23866 5.10343 0.435923 6.70918 0.133448 8.4413C-0.169026 10.1734 0.0419894 11.9562 0.740479 13.5698C1.43897 15.1835 2.5944 16.5575 4.06432 17.5224C5.53425 18.4873 7.25441 19.001 9.01274 19.0001H14.25C15.2442 18.9991 16.1975 18.6037 16.9005 17.9006C17.6036 17.1976 17.999 16.2443 18 15.2501V9.43531ZM16.5 15.2501C16.5 15.8468 16.2629 16.4191 15.841 16.841C15.419 17.263 14.8467 17.5001 14.25 17.5001H9.01274C7.95444 17.4996 6.90812 17.276 5.94201 16.844C4.9759 16.412 4.1117 15.7812 3.40574 14.9928C2.69637 14.2048 2.16369 13.2742 1.84341 12.2634C1.52313 11.2526 1.42267 10.1851 1.54874 9.13231C1.74782 7.47176 2.49388 5.9247 3.66932 4.735C4.84476 3.5453 6.38272 2.78064 8.04074 2.56156C8.36417 2.52102 8.68979 2.50048 9.01574 2.50006C10.7636 2.49529 12.4573 3.10598 13.8 4.22506C14.5841 4.87676 15.2278 5.68092 15.6919 6.58878C16.156 7.49664 16.4309 8.48929 16.5 9.50656V15.2501Z" fill="black"/>
<path d="M6 7.75H9C9.19891 7.75 9.38968 7.67098 9.53033 7.53033C9.67098 7.38968 9.75 7.19891 9.75 7C9.75 6.80109 9.67098 6.61032 9.53033 6.46967C9.38968 6.32902 9.19891 6.25 9 6.25H6C5.80109 6.25 5.61032 6.32902 5.46967 6.46967C5.32902 6.61032 5.25 6.80109 5.25 7C5.25 7.19891 5.32902 7.38968 5.46967 7.53033C5.61032 7.67098 5.80109 7.75 6 7.75Z" fill="black"/>
<path d="M12 9.25H6C5.80109 9.25 5.61032 9.32902 5.46967 9.46967C5.32902 9.61032 5.25 9.80109 5.25 10C5.25 10.1989 5.32902 10.3897 5.46967 10.5303C5.61032 10.671 5.80109 10.75 6 10.75H12C12.1989 10.75 12.3897 10.671 12.5303 10.5303C12.671 10.3897 12.75 10.1989 12.75 10C12.75 9.80109 12.671 9.61032 12.5303 9.46967C12.3897 9.32902 12.1989 9.25 12 9.25Z" fill="black"/>
<path d="M12 12.25H6C5.80109 12.25 5.61032 12.329 5.46967 12.4697C5.32902 12.6103 5.25 12.8011 5.25 13C5.25 13.1989 5.32902 13.3897 5.46967 13.5303C5.61032 13.671 5.80109 13.75 6 13.75H12C12.1989 13.75 12.3897 13.671 12.5303 13.5303C12.671 13.3897 12.75 13.1989 12.75 13C12.75 12.8011 12.671 12.6103 12.5303 12.4697C12.3897 12.329 12.1989 12.25 12 12.25Z" fill="black"/>
</svg>
