<svg width="14" height="18" viewBox="0 0 14 18" fill="none" xmlns="http://www.w3.org/2000/svg">
<path d="M7 8.99988C7.89002 8.99988 8.76005 8.73596 9.50007 8.24149C10.2401 7.74703 10.8169 7.04422 11.1575 6.22196C11.4981 5.39969 11.5872 4.49489 11.4135 3.62197C11.2399 2.74906 10.8113 1.94724 10.182 1.3179C9.55264 0.688563 8.75082 0.25998 7.87791 0.0863462C7.00499 -0.0872873 6.10019 0.00182772 5.27792 0.342422C4.45566 0.683016 3.75285 1.25979 3.25839 1.99981C2.76392 2.73984 2.5 3.60986 2.5 4.49988C2.50119 5.69299 2.97568 6.83689 3.81934 7.68054C4.66299 8.5242 5.80689 8.99869 7 8.99988ZM7 1.49988C7.59334 1.49988 8.17336 1.67583 8.66671 2.00547C9.16006 2.33512 9.54458 2.80365 9.77164 3.35183C9.9987 3.90001 10.0581 4.50321 9.94236 5.08515C9.8266 5.66709 9.54088 6.20164 9.12132 6.6212C8.70176 7.04076 8.16721 7.32648 7.58527 7.44224C7.00333 7.55799 6.40013 7.49858 5.85195 7.27152C5.30377 7.04446 4.83524 6.65994 4.50559 6.16659C4.17595 5.67324 4 5.09322 4 4.49988C4 3.70423 4.31607 2.94117 4.87868 2.37856C5.44129 1.81595 6.20435 1.49988 7 1.49988Z" fill="black"/>
<path d="M7 10.5C5.2104 10.502 3.49466 11.2138 2.22922 12.4792C0.963781 13.7447 0.251985 15.4604 0.25 17.25C0.25 17.4489 0.329018 17.6397 0.46967 17.7803C0.610322 17.921 0.801088 18 1 18C1.19891 18 1.38968 17.921 1.53033 17.7803C1.67098 17.6397 1.75 17.4489 1.75 17.25C1.75 15.8576 2.30312 14.5223 3.28769 13.5377C4.27226 12.5531 5.60761 12 7 12C8.39239 12 9.72774 12.5531 10.7123 13.5377C11.6969 14.5223 12.25 15.8576 12.25 17.25C12.25 17.4489 12.329 17.6397 12.4697 17.7803C12.6103 17.921 12.8011 18 13 18C13.1989 18 13.3897 17.921 13.5303 17.7803C13.671 17.6397 13.75 17.4489 13.75 17.25C13.748 15.4604 13.0362 13.7447 11.7708 12.4792C10.5053 11.2138 8.7896 10.502 7 10.5Z" fill="black"/>
</svg>
