<svg width="18" height="19" viewBox="0 0 18 19" fill="none" xmlns="http://www.w3.org/2000/svg">
<path d="M17.7896 17.706L13.3166 13.2329C14.5355 11.7421 15.1349 9.83974 14.9906 7.91942C14.8463 5.9991 13.9694 4.2077 12.5414 2.91576C11.1133 1.62381 9.24335 0.930165 7.31822 0.9783C5.39309 1.02643 3.56011 1.81266 2.19841 3.17436C0.836711 4.53606 0.0504818 6.36905 0.00234752 8.29418C-0.0457868 10.2193 0.647857 12.0893 1.9398 13.5173C3.23175 14.9454 5.02315 15.8222 6.94347 15.9665C8.86379 16.1108 10.7661 15.5115 12.2569 14.2925L16.73 18.7656C16.8713 18.9021 17.0606 18.9776 17.2571 18.9759C17.4536 18.9742 17.6416 18.8954 17.7805 18.7565C17.9195 18.6175 17.9983 18.4296 18 18.2331C18.0017 18.0366 17.9261 17.8473 17.7896 17.706ZM7.51783 14.4889C6.33212 14.4889 5.17303 14.1372 4.18714 13.4785C3.20126 12.8198 2.43286 11.8835 1.9791 10.788C1.52535 9.69254 1.40663 8.48713 1.63795 7.3242C1.86927 6.16127 2.44025 5.09305 3.27867 4.25462C4.1171 3.4162 5.18532 2.84522 6.34825 2.6139C7.51118 2.38258 8.71659 2.5013 9.81204 2.95505C10.9075 3.40881 11.8438 4.17721 12.5026 5.1631C13.1613 6.14898 13.5129 7.30807 13.5129 8.49378C13.5111 10.0832 12.8789 11.6071 11.755 12.731C10.6311 13.8549 9.10727 14.4871 7.51783 14.4889Z" fill="black"/>
</svg>
