<svg width="18" height="18" viewBox="0 0 18 18" xmlns="http://www.w3.org/2000/svg">
<path d="M9 0C7.21997 0 5.47991 0.527841 3.99987 1.51677C2.51983 2.50571 1.36628 3.91131 0.685088 5.55585C0.00389957 7.20038 -0.17433 9.00998 0.172936 10.7558C0.520203 12.5016 1.37737 14.1053 2.63604 15.364C3.89471 16.6226 5.49836 17.4798 7.24419 17.8271C8.99002 18.1743 10.7996 17.9961 12.4442 17.3149C14.0887 16.6337 15.4943 15.4802 16.4832 14.0001C17.4722 12.5201 18 10.78 18 9C17.9974 6.61384 17.0484 4.32616 15.3611 2.63889C13.6738 0.951621 11.3862 0.00258081 9 0V0ZM9 16.5C7.51664 16.5 6.06659 16.0601 4.83323 15.236C3.59986 14.4119 2.63856 13.2406 2.07091 11.8701C1.50325 10.4997 1.35473 8.99168 1.64411 7.53682C1.9335 6.08196 2.64781 4.74559 3.6967 3.6967C4.7456 2.6478 6.08197 1.9335 7.53683 1.64411C8.99168 1.35472 10.4997 1.50325 11.8701 2.0709C13.2406 2.63856 14.4119 3.59985 15.236 4.83322C16.0601 6.06659 16.5 7.51664 16.5 9C16.4978 10.9885 15.7069 12.8948 14.3009 14.3009C12.8948 15.7069 10.9885 16.4978 9 16.5Z" fill="#000"/>
<path d="M8.99996 4.5C8.80105 4.5 8.61028 4.57902 8.46963 4.71967C8.32898 4.86032 8.24996 5.05109 8.24996 5.25V8.49375L5.72171 10.0777C5.55263 10.1834 5.43244 10.3518 5.38757 10.5461C5.34271 10.7403 5.37684 10.9444 5.48246 11.1135C5.58808 11.2826 5.75654 11.4028 5.95078 11.4476C6.14503 11.4925 6.34913 11.4584 6.51821 11.3527L9.39821 9.55275C9.50702 9.48457 9.59651 9.3896 9.6581 9.27692C9.71969 9.16425 9.75132 9.03765 9.74996 8.90925V5.25C9.74996 5.05109 9.67094 4.86032 9.53029 4.71967C9.38964 4.57902 9.19887 4.5 8.99996 4.5Z" fill="#000"/>
</svg>
